<svg width="84" height="68" viewBox="0 0 84 68" fill="none" xmlns="http://www.w3.org/2000/svg">
<g clip-path="url(#clip0_5_15)">
<path d="M82.0296 23.375H72.2072L69.4772 17.85C66.6717 12.1696 59.9763 8.5 52.418 8.5H31.582C24.0253 8.5 17.3283 12.1696 14.5212 17.85L11.7912 23.375H1.9704C0.689076 23.375 -0.251002 24.3498 0.0607168 25.3552L1.04509 28.5427C1.26329 29.252 2.05079 29.75 2.95478 29.75H6.24751C4.04415 31.3079 2.62501 33.5723 2.62501 36.125V42.5C2.62501 44.6409 3.63564 46.5734 5.25001 48.0688V55.25C5.25001 57.5968 7.60103 59.5 10.5 59.5H15.75C18.649 59.5 21 57.5968 21 55.25V51H63V55.25C63 57.5968 65.351 59.5 68.25 59.5H73.5C76.399 59.5 78.75 57.5968 78.75 55.25V48.0688C80.3644 46.5747 81.375 44.6423 81.375 42.5V36.125C81.375 33.5723 79.9559 31.3079 77.7542 29.75H81.0469C81.9509 29.75 82.7384 29.252 82.9566 28.5427L83.941 25.3552C84.251 24.3498 83.311 23.375 82.0296 23.375ZM24.2698 21.007C25.4658 18.5871 28.3615 17 31.582 17H52.418C55.6385 17 58.5342 18.5871 59.7303 21.007L63 27.625H21L24.2698 21.007ZM15.75 42.4734C12.6 42.4734 10.5 40.7787 10.5 38.2367C10.5 35.6947 12.6 34 15.75 34C18.9 34 23.625 37.813 23.625 40.3551C23.625 42.8971 18.9 42.4734 15.75 42.4734ZM68.25 42.4734C65.1 42.4734 60.375 42.8971 60.375 40.3551C60.375 37.813 65.1 34 68.25 34C71.4 34 73.5 35.6947 73.5 38.2367C73.5 40.7787 71.4 42.4734 68.25 42.4734Z" fill="black"/>
</g>
<defs>
<clipPath id="clip0_5_15">
<rect width="84" height="68" fill="white"/>
</clipPath>
</defs>
</svg>
