<svg width="24" height="24" viewBox="0 0 24 24" fill="none" xmlns="http://www.w3.org/2000/svg">
<path fill-rule="evenodd" clip-rule="evenodd" d="M17.861 3.1629C17.9137 3.18047 17.967 3.19829 18.0211 3.21631L19.2231 3.61699C19.6863 3.77133 20.0922 3.90661 20.4142 4.05642C20.7623 4.21838 21.0814 4.42699 21.3253 4.76539C21.5692 5.10379 21.6662 5.47243 21.7098 5.85392C21.7501 6.2068 21.75 6.63467 21.75 7.12282V15.3354C21.75 16.0339 21.75 16.6229 21.6959 17.0886C21.6397 17.5723 21.5136 18.0506 21.161 18.4364C20.9519 18.6653 20.6978 18.8484 20.4146 18.9745C19.9371 19.1869 19.4435 19.1553 18.9667 19.0556C18.5078 18.9597 17.949 18.7735 17.2865 18.5526L17.2438 18.5384C16.1233 18.1648 15.7393 18.0485 15.3665 18.0612C15.218 18.0663 15.0703 18.086 14.9257 18.1202C14.5627 18.206 14.2229 18.4193 13.2401 19.0745L11.8577 19.9961C11.8103 20.0277 11.7635 20.059 11.7173 20.0898C10.6558 20.7983 9.91754 21.2911 9.05448 21.4066C8.19141 21.5222 7.3495 21.2411 6.13896 20.8368C6.08632 20.8192 6.03298 20.8014 5.97892 20.7834L4.77683 20.3827C4.31373 20.2284 3.90783 20.0931 3.5858 19.9433C3.23766 19.7813 2.91861 19.5727 2.67471 19.2343C2.4308 18.8959 2.33379 18.5273 2.29024 18.1458C2.24995 17.7929 2.24997 17.365 2.25 16.8769L2.25 8.66429C2.24998 7.96585 2.24996 7.37681 2.3041 6.91114C2.36035 6.42736 2.48645 5.94908 2.83896 5.56328C3.04807 5.33442 3.30221 5.15125 3.58544 5.02524C4.06293 4.81282 4.55653 4.84444 5.03328 4.94406C5.49217 5.03995 6.05097 5.22624 6.71356 5.44713L6.75619 5.46134C7.87675 5.83486 8.26073 5.95123 8.63351 5.9385C8.78204 5.93343 8.9297 5.91366 9.07432 5.87947C9.43731 5.79367 9.77714 5.58037 10.7599 4.92517L12.1423 4.00358C12.1897 3.97197 12.2365 3.94075 12.2827 3.90994C13.3442 3.20141 14.0825 2.70865 14.9455 2.59307C15.8086 2.47748 16.6505 2.75864 17.861 3.1629ZM15.75 4.10528V16.5791C16.2857 16.6372 16.8498 16.8255 17.5931 17.0736C17.6342 17.0873 17.6759 17.1012 17.7182 17.1153C18.4348 17.3542 18.9103 17.5114 19.2735 17.5873C19.6287 17.6616 19.7505 17.6281 19.8049 17.604C19.8993 17.562 19.984 17.5009 20.0537 17.4246C20.0938 17.3807 20.164 17.2757 20.2059 16.9153C20.2488 16.5467 20.25 16.0459 20.25 15.2905V7.16213C20.25 6.62306 20.2489 6.28174 20.2195 6.02407C20.1922 5.78555 20.1477 5.69688 20.1084 5.64246C20.0692 5.58803 19.9992 5.51772 19.7815 5.41646C19.5464 5.30707 19.2229 5.19806 18.7115 5.02759L17.5467 4.63933C16.6604 4.34388 16.1345 4.17577 15.75 4.10528ZM14.25 16.7595V4.43322C13.9388 4.61304 13.5397 4.87479 12.9744 5.25166L11.592 6.17324C11.5549 6.19795 11.5184 6.22235 11.4823 6.24642C10.794 6.7057 10.281 7.04807 9.75 7.24024V19.5665C10.0612 19.3867 10.4603 19.1249 11.0256 18.748L12.408 17.8265C12.4451 17.8017 12.4816 17.7774 12.5177 17.7533C13.206 17.294 13.719 16.9516 14.25 16.7595ZM8.25 19.8944V7.4206C7.71431 7.36253 7.15021 7.17422 6.40693 6.9261C6.36579 6.91237 6.32411 6.89845 6.28185 6.88437C5.5652 6.64548 5.08969 6.48825 4.72647 6.41235C4.37129 6.33813 4.2495 6.37156 4.19515 6.39574C4.10074 6.43774 4.01603 6.4988 3.94632 6.57508C3.9062 6.619 3.83597 6.72397 3.79406 7.08439C3.75121 7.45297 3.75 7.95381 3.75 8.70921V16.8376C3.75 17.3766 3.75114 17.718 3.78055 17.9756C3.80779 18.2141 3.85234 18.3028 3.89157 18.3572C3.9308 18.4117 4.00083 18.482 4.21849 18.5832C4.45364 18.6926 4.77709 18.8016 5.28849 18.9721L6.45326 19.3604C7.33961 19.6558 7.86547 19.8239 8.25 19.8944Z" fill="#17171C"/>
</svg>
