<svg width="24" height="24" viewBox="0 0 24 24" fill="none" xmlns="http://www.w3.org/2000/svg">
<path fill-rule="evenodd" clip-rule="evenodd" d="M3.95526 2.25C3.97013 2.25 3.98505 2.25 4.00001 2.25L20.0448 2.25C20.4776 2.24994 20.8744 2.2499 21.1972 2.2933C21.5527 2.34109 21.9284 2.45354 22.2374 2.76256C22.5465 3.07159 22.6589 3.44731 22.7067 3.80279C22.7501 4.1256 22.7501 4.52244 22.75 4.95525V5.04474C22.7501 5.47756 22.7501 5.87439 22.7067 6.19721C22.6589 6.55269 22.5465 6.92841 22.2374 7.23744C21.9437 7.5312 21.5896 7.64732 21.25 7.69913V13.0564C21.25 14.8942 21.25 16.3498 21.0969 17.489C20.9392 18.6614 20.6071 19.6104 19.8588 20.3588C19.1104 21.1071 18.1615 21.4392 16.989 21.5969C15.8498 21.75 14.3942 21.75 12.5564 21.75H11.4436C9.60583 21.75 8.1502 21.75 7.01098 21.5969C5.83856 21.4392 4.88961 21.1071 4.14125 20.3588C3.39289 19.6104 3.06077 18.6614 2.90314 17.489C2.74998 16.3498 2.74999 14.8942 2.75001 13.0564L2.75001 7.69913C2.41038 7.64732 2.05634 7.5312 1.76257 7.23744C1.45355 6.92841 1.3411 6.55269 1.29331 6.19721C1.24991 5.8744 1.24995 5.47756 1.25 5.04475C1.25001 5.02987 1.25001 5.01496 1.25001 5C1.25001 4.98504 1.25001 4.97012 1.25 4.95525C1.24995 4.52243 1.24991 4.1256 1.29331 3.80279C1.3411 3.44731 1.45355 3.07159 1.76257 2.76256C2.07159 2.45354 2.44732 2.34109 2.8028 2.2933C3.12561 2.2499 3.52244 2.24994 3.95526 2.25ZM4.25001 7.75V13C4.25001 14.9068 4.2516 16.2615 4.38977 17.2892C4.52503 18.2952 4.7787 18.8749 5.20191 19.2981C5.62512 19.7213 6.20477 19.975 7.21086 20.1102C8.23852 20.2484 9.59319 20.25 11.5 20.25H12.5C14.4068 20.25 15.7615 20.2484 16.7892 20.1102C17.7952 19.975 18.3749 19.7213 18.7981 19.2981C19.2213 18.8749 19.475 18.2952 19.6102 17.2892C19.7484 16.2615 19.75 14.9068 19.75 13V7.75H4.25001ZM2.82324 3.82324L2.82568 3.82186C2.82761 3.82085 2.83093 3.81923 2.83597 3.81716C2.85775 3.8082 2.90611 3.79291 3.00267 3.77992C3.21339 3.75159 3.5074 3.75 4.00001 3.75H20C20.4926 3.75 20.7866 3.75159 20.9973 3.77992C21.0939 3.79291 21.1423 3.8082 21.164 3.81716C21.1691 3.81923 21.1724 3.82085 21.1743 3.82186L21.1768 3.82322L21.1781 3.82567C21.1792 3.8276 21.1808 3.83092 21.1828 3.83596C21.1918 3.85774 21.2071 3.9061 21.2201 4.00266C21.2484 4.21339 21.25 4.50739 21.25 5C21.25 5.49261 21.2484 5.78661 21.2201 5.99734C21.2071 6.09389 21.1918 6.14226 21.1828 6.16404C21.1808 6.16908 21.1792 6.1724 21.1781 6.17433L21.1768 6.17678L21.1743 6.17814C21.1724 6.17915 21.1691 6.18076 21.164 6.18284C21.1423 6.1918 21.0939 6.20709 20.9973 6.22008C20.7866 6.24841 20.4926 6.25 20 6.25H4.00001C3.5074 6.25 3.21339 6.24841 3.00267 6.22008C2.90611 6.20709 2.85775 6.1918 2.83597 6.18284C2.83093 6.18076 2.82761 6.17915 2.82568 6.17814L2.82324 6.17676L2.82187 6.17433C2.82086 6.17239 2.81924 6.16908 2.81717 6.16403C2.80821 6.14225 2.79291 6.09389 2.77993 5.99734C2.7516 5.78661 2.75001 5.49261 2.75001 5C2.75001 4.50739 2.7516 4.21339 2.77993 4.00266C2.79291 3.90611 2.80821 3.85774 2.81717 3.83596C2.81924 3.83092 2.82086 3.8276 2.82187 3.82567L2.82324 3.82324ZM2.82324 6.17676C2.82284 6.17636 2.82297 6.17643 2.82324 6.17676V6.17676ZM14.9995 10.4405C15.3085 10.7164 15.3353 11.1905 15.0595 11.4995L11.488 15.4995C11.3457 15.6589 11.1422 15.75 10.9286 15.75C10.7149 15.75 10.5114 15.6589 10.3691 15.4995L8.94055 13.8995C8.66468 13.5905 8.69152 13.1164 9.0005 12.8405C9.30947 12.5647 9.78359 12.5915 10.0595 12.9005L10.9286 13.8739L13.9406 10.5005C14.2164 10.1915 14.6905 10.1647 14.9995 10.4405Z" fill="#17171C"/>
</svg>
